<mxfile host="app.diagrams.net" agent="Mozilla/5.0 (X11; Linux x86_64) AppleWebKit/537.36 (KHTML, like Gecko) Chrome/134.0.0.0 Safari/537.36" version="27.0.6">
  <diagram name="Page-1" id="90yGl_6BJqAslQunivGD">
    <mxGraphModel dx="1665" dy="675" grid="1" gridSize="10" guides="1" tooltips="1" connect="1" arrows="1" fold="1" page="1" pageScale="1" pageWidth="827" pageHeight="1169" math="0" shadow="0">
      <root>
        <mxCell id="0" />
        <mxCell id="1" parent="0" />
        <mxCell id="SB2P0N9KOsRjKXzUwZnq-2" value="PT0 is ICLR one&amp;nbsp;&lt;div&gt;PT1 &amp;amp; 2 are fyp&lt;/div&gt;&lt;div&gt;Cyclone LC is LC0&lt;/div&gt;" style="rounded=0;whiteSpace=wrap;html=1;rotation=0;" parent="1" vertex="1">
          <mxGeometry x="160" y="600" width="400" height="170" as="geometry" />
        </mxCell>
        <mxCell id="SB2P0N9KOsRjKXzUwZnq-4" value="&lt;div&gt;Kermit&lt;/div&gt;&lt;div&gt;106&lt;/div&gt;" style="rounded=0;whiteSpace=wrap;html=1;rotation=0;" parent="1" vertex="1">
          <mxGeometry x="440" y="280" width="120" height="280" as="geometry" />
        </mxCell>
        <mxCell id="SB2P0N9KOsRjKXzUwZnq-5" value="6" style="whiteSpace=wrap;html=1;aspect=fixed;" parent="1" vertex="1">
          <mxGeometry x="550" y="350" width="30" height="30" as="geometry" />
        </mxCell>
        <mxCell id="SB2P0N9KOsRjKXzUwZnq-6" value="7" style="whiteSpace=wrap;html=1;aspect=fixed;" parent="1" vertex="1">
          <mxGeometry x="550" y="390" width="30" height="30" as="geometry" />
        </mxCell>
        <mxCell id="SB2P0N9KOsRjKXzUwZnq-7" value="8" style="whiteSpace=wrap;html=1;aspect=fixed;" parent="1" vertex="1">
          <mxGeometry x="550" y="430" width="30" height="30" as="geometry" />
        </mxCell>
        <mxCell id="SB2P0N9KOsRjKXzUwZnq-8" value="9" style="whiteSpace=wrap;html=1;aspect=fixed;" parent="1" vertex="1">
          <mxGeometry x="550" y="470" width="30" height="30" as="geometry" />
        </mxCell>
        <mxCell id="SB2P0N9KOsRjKXzUwZnq-9" value="10" style="whiteSpace=wrap;html=1;aspect=fixed;" parent="1" vertex="1">
          <mxGeometry x="550" y="510" width="30" height="30" as="geometry" />
        </mxCell>
        <mxCell id="SB2P0N9KOsRjKXzUwZnq-10" value="4" style="whiteSpace=wrap;html=1;aspect=fixed;" parent="1" vertex="1">
          <mxGeometry x="420" y="290" width="30" height="30" as="geometry" />
        </mxCell>
        <mxCell id="SB2P0N9KOsRjKXzUwZnq-11" value="3" style="whiteSpace=wrap;html=1;aspect=fixed;" parent="1" vertex="1">
          <mxGeometry x="420" y="330" width="30" height="30" as="geometry" />
        </mxCell>
        <mxCell id="SB2P0N9KOsRjKXzUwZnq-12" value="2" style="whiteSpace=wrap;html=1;aspect=fixed;" parent="1" vertex="1">
          <mxGeometry x="420" y="370" width="30" height="30" as="geometry" />
        </mxCell>
        <mxCell id="SB2P0N9KOsRjKXzUwZnq-13" value="1" style="whiteSpace=wrap;html=1;aspect=fixed;" parent="1" vertex="1">
          <mxGeometry x="420" y="410" width="30" height="30" as="geometry" />
        </mxCell>
        <mxCell id="SB2P0N9KOsRjKXzUwZnq-14" value="0" style="whiteSpace=wrap;html=1;aspect=fixed;" parent="1" vertex="1">
          <mxGeometry x="420" y="450" width="30" height="30" as="geometry" />
        </mxCell>
        <mxCell id="SB2P0N9KOsRjKXzUwZnq-15" value="&lt;div&gt;&lt;span style=&quot;background-color: transparent; color: light-dark(rgb(0, 0, 0), rgb(255, 255, 255));&quot;&gt;Kermit&lt;/span&gt;&lt;/div&gt;&lt;div&gt;108&lt;/div&gt;" style="rounded=0;whiteSpace=wrap;html=1;rotation=0;" parent="1" vertex="1">
          <mxGeometry x="160" y="280" width="120" height="280" as="geometry" />
        </mxCell>
        <mxCell id="SB2P0N9KOsRjKXzUwZnq-16" value="6" style="whiteSpace=wrap;html=1;aspect=fixed;" parent="1" vertex="1">
          <mxGeometry x="270" y="350" width="30" height="30" as="geometry" />
        </mxCell>
        <mxCell id="SB2P0N9KOsRjKXzUwZnq-17" value="7" style="whiteSpace=wrap;html=1;aspect=fixed;" parent="1" vertex="1">
          <mxGeometry x="270" y="390" width="30" height="30" as="geometry" />
        </mxCell>
        <mxCell id="SB2P0N9KOsRjKXzUwZnq-18" value="8" style="whiteSpace=wrap;html=1;aspect=fixed;" parent="1" vertex="1">
          <mxGeometry x="270" y="430" width="30" height="30" as="geometry" />
        </mxCell>
        <mxCell id="SB2P0N9KOsRjKXzUwZnq-19" value="9" style="whiteSpace=wrap;html=1;aspect=fixed;" parent="1" vertex="1">
          <mxGeometry x="270" y="470" width="30" height="30" as="geometry" />
        </mxCell>
        <mxCell id="SB2P0N9KOsRjKXzUwZnq-20" value="10" style="whiteSpace=wrap;html=1;aspect=fixed;" parent="1" vertex="1">
          <mxGeometry x="270" y="510" width="30" height="30" as="geometry" />
        </mxCell>
        <mxCell id="SB2P0N9KOsRjKXzUwZnq-21" value="4" style="whiteSpace=wrap;html=1;aspect=fixed;" parent="1" vertex="1">
          <mxGeometry x="140" y="290" width="30" height="30" as="geometry" />
        </mxCell>
        <mxCell id="SB2P0N9KOsRjKXzUwZnq-22" value="3" style="whiteSpace=wrap;html=1;aspect=fixed;" parent="1" vertex="1">
          <mxGeometry x="140" y="330" width="30" height="30" as="geometry" />
        </mxCell>
        <mxCell id="SB2P0N9KOsRjKXzUwZnq-23" value="2" style="whiteSpace=wrap;html=1;aspect=fixed;" parent="1" vertex="1">
          <mxGeometry x="140" y="370" width="30" height="30" as="geometry" />
        </mxCell>
        <mxCell id="SB2P0N9KOsRjKXzUwZnq-24" value="1" style="whiteSpace=wrap;html=1;aspect=fixed;" parent="1" vertex="1">
          <mxGeometry x="140" y="410" width="30" height="30" as="geometry" />
        </mxCell>
        <mxCell id="SB2P0N9KOsRjKXzUwZnq-25" value="0" style="whiteSpace=wrap;html=1;aspect=fixed;" parent="1" vertex="1">
          <mxGeometry x="140" y="450" width="30" height="30" as="geometry" />
        </mxCell>
        <mxCell id="SB2P0N9KOsRjKXzUwZnq-26" value="LC1" style="whiteSpace=wrap;html=1;aspect=fixed;" parent="1" vertex="1">
          <mxGeometry x="580" y="390" width="30" height="30" as="geometry" />
        </mxCell>
        <mxCell id="SB2P0N9KOsRjKXzUwZnq-27" value="LC2" style="whiteSpace=wrap;html=1;aspect=fixed;" parent="1" vertex="1">
          <mxGeometry x="390" y="370" width="30" height="30" as="geometry" />
        </mxCell>
        <mxCell id="SB2P0N9KOsRjKXzUwZnq-28" value="PT1" style="whiteSpace=wrap;html=1;aspect=fixed;" parent="1" vertex="1">
          <mxGeometry x="110" y="410" width="30" height="30" as="geometry" />
        </mxCell>
        <mxCell id="SB2P0N9KOsRjKXzUwZnq-29" value="PT2" style="whiteSpace=wrap;html=1;aspect=fixed;" parent="1" vertex="1">
          <mxGeometry x="110" y="450" width="30" height="30" as="geometry" />
        </mxCell>
        <mxCell id="SB2P0N9KOsRjKXzUwZnq-30" value="PT0" style="whiteSpace=wrap;html=1;aspect=fixed;" parent="1" vertex="1">
          <mxGeometry x="390" y="450" width="30" height="30" as="geometry" />
        </mxCell>
        <mxCell id="uxQic0ivEmVGceUXvQhU-1" value="F&amp;amp;S&lt;div&gt;107&lt;/div&gt;" style="whiteSpace=wrap;html=1;aspect=fixed;" vertex="1" parent="1">
          <mxGeometry x="10" y="545" width="80" height="80" as="geometry" />
        </mxCell>
        <mxCell id="uxQic0ivEmVGceUXvQhU-2" value="LC0" style="whiteSpace=wrap;html=1;aspect=fixed;" vertex="1" parent="1">
          <mxGeometry x="300" y="390" width="30" height="30" as="geometry" />
        </mxCell>
        <mxCell id="uxQic0ivEmVGceUXvQhU-3" value="Chad&lt;div&gt;104&lt;/div&gt;" style="whiteSpace=wrap;html=1;aspect=fixed;" vertex="1" parent="1">
          <mxGeometry x="10" y="645" width="80" height="80" as="geometry" />
        </mxCell>
      </root>
    </mxGraphModel>
  </diagram>
</mxfile>
